<svg xmlns="http://www.w3.org/2000/svg" xmlns:xlink="http://www.w3.org/1999/xlink" id="OBJECTS" viewBox="0 0 596.25 194.59"><defs><style>.cls-1,.cls-14,.cls-15,.cls-16{fill:none}.cls-2{clip-path:url(#clip-path)}.cls-3{fill:#dcd0fe}.cls-4{fill:#6242ba}.cls-5{fill:#bba4ff}.cls-6{fill:#f3a9b8}.cls-7{fill:#ea4272}.cls-8{fill:#e87d91}.cls-9{fill:#4f2caf}.cls-10{fill:#dfd2fd}.cls-11{fill:#d7c5ff}.cls-12{fill:#9c89e5}.cls-13{fill:#31193b}.cls-14{stroke:#31193b}.cls-14,.cls-15,.cls-16{stroke-miterlimit:10}.cls-14,.cls-16{stroke-width:.25px}.cls-15{stroke:#f96c96;stroke-width:.52px}.cls-16{stroke:#bba4ff}.cls-17{fill:#2d353c}</style><clipPath id="clip-path"><rect width="596.25" height="372.14" y="-144.99" class="cls-1"/></clipPath></defs><title>Social Marketing</title><g class="cls-2"><path d="M57.48,179.36l2,3.29c-.54-1.07-1.08-2.16-1.6-3.28Z" class="cls-1"/><path d="M35,181.78l-20.53-1.36c-2.2,7.76-.17,17.18,3.32,25.8H50.87Z" class="cls-3"/><path d="M65.39,140.61c-10,1.48-13.67,7.2-14,14.49l21.18,1.53Z" class="cls-3"/><path d="M103.14,224.27l13.19-13.69a230.15,230.15,0,0,0-11-34.36l-15,19.31Z" class="cls-3"/><path d="M90.15,195.27l15-19.31c-3.93-9.23-8.7-17.94-14.41-24.44L79,170.36Z" class="cls-3"/><path d="M72.68,156.89l-21.3-1.54c-.25,7.3,2.82,16.1,6.4,23.77L83,180Z" class="cls-3"/><path d="M90.61,151.32c-6.33-7.14-13.8-11.58-22.51-11-.86.06-1.67.14-2.46.25l13.23,29.52Z" class="cls-3"/><path d="M58.72,217.83,69.6,199.62,58.67,181.77a54.58,54.58,0,0,0-10.21-10.55l-6,21.65Z" class="cls-3"/><path d="M59.5,182.65l17.57,28.69h20l-14-31.13-25.23-.84C58.42,180.49,59,181.58,59.5,182.65Z" class="cls-3"/><path d="M48.25,171.06c-6.4-4.79-14-7.24-22.26-3.54L42.3,192.59Z" class="cls-3"/><path d="M25.76,167.63c-.42.19-.84.39-1.26.62a19.45,19.45,0,0,0-10,11.92l20.29,1.35Z" class="cls-3"/><path d="M58.87,218.06v.07l-.21-.13.1-.17-16.24-25h0l-.25-.06.08-.27L26,167.52l-.23.11,9,13.89H35v.25h0l15.9,24.44h.23v.25H51l14.77,22.7h.3Z" class="cls-4"/><path d="M103.19,224.58l-.18-.18.13-.13L90.27,195.53v.06l-.2-.15.13-.17L79,170.36h0l-.21-.13.13-.2L65.64,140.56l-.25.05,7.18,16h.21v.25H72.7L83,180h.21v.25h-.08l14,31.13h.19v.25h-.08L105,228.94h.28l-2-4.39Z" class="cls-4"/><path d="M69.64,199.56l.21.13-.1.18L87.6,229h.29L77.22,211.59H77v-.25h.07L59.5,182.65c.13.26.26.52.4.78-.4-.55-.81-1.1-1.23-1.66L69.6,199.62Z" class="cls-4"/><path d="M34.8,181.52l-20.29-1.35a.36.36,0,0,1-.07.25L35,181.78Z" class="cls-4"/><polygon points="35.03 181.78 35.05 181.53 34.8 181.52 34.97 181.78 35.03 181.78" class="cls-4"/><path d="M42.48,192.87l6-21.65-.21-.16-6,21.53Z" class="cls-4"/><polygon points="42.22 192.86 42.47 192.92 42.48 192.87 42.3 192.59 42.22 192.86" class="cls-4"/><path d="M72.57,156.63,51.39,155.1v.25l21.3,1.54Z" class="cls-4"/><polygon points="72.76 156.9 72.78 156.65 72.57 156.63 72.68 156.89 72.76 156.9" class="cls-4"/><path d="M79,170.36l11.79-18.84-.17-.2L78.87,170.08Z" class="cls-4"/><polygon points="78.74 170.28 78.95 170.41 78.99 170.36 78.87 170.08 78.74 170.28" class="cls-4"/><path d="M83.13,180.21,83,180l-25.23-.84.12.25Z" class="cls-4"/><polygon points="83.21 180.21 83.22 179.96 83.02 179.96 83.13 180.21 83.21 180.21" class="cls-4"/><path d="M90.27,195.53l15-19.31c0-.09-.08-.17-.11-.26l-15,19.31Z" class="cls-4"/><polygon points="472.41 158.69 472.46 155.37 471.38 158.69 472.41 158.69" class="cls-4"/><path d="M95.45,175.38l3.17,65.8,1.83-.08S105.34,176.43,95.45,175.38Z" class="cls-4"/><path d="M98.37,241.19,95.2,175.37h-.1c-4.84.21-4.53,14.6-2.83,29.87-3.28-17.76-7.81-35.3-12.86-34.36L98.22,241.2Z" class="cls-4"/><path d="M94.82,240.86h.05c.15.41.24.64.24.64l1.92-.43-34-57.8C55.93,190,94.82,240.86,94.82,240.86Z" class="cls-4"/><path d="M97.55,240.93l.4.28h0l-18.8-70.28c-5.3,1.65,0,22.8,5.93,41.52-7.56-15.82-16.81-32.18-21.67-29.54a1.81,1.81,0,0,0-.29.19L97.29,241Z" class="cls-4"/><path d="M63,183.27a1.54,1.54,0,0,1,.19-.17l-.94-1.59" class="cls-5"/><path d="M63.14,183.1a1.54,1.54,0,0,0-.19.17L97,241.05l.26-.06Z" class="cls-5"/><path d="M98.22,241.2,79.41,170.87h-.07l-.17,0L98,241.21Z" class="cls-5"/><path d="M95.2,175.37l3.17,65.82h.25l-3.17-65.8Z" class="cls-5"/><path d="M86.47,129.76C69.78,133.58,110.76,236,110.76,236h.09c.06.73.1,1.13.1,1.13l3,.15L87.06,129.69C86.87,129.71,86.67,129.72,86.47,129.76Z" class="cls-5"/><path d="M115.07,237.27l.52.62.55.13,1-120.36c-9.42-.42-10.31,36-9.22,68.74-4.87-27.63-12-56.77-20.56-56.73l26.86,107.56Z" class="cls-5"/><path d="M117.26,238.28l23.16-106.43-.18-.06c-7.79-1.81-13.68,21.23-17.75,46.3,2.65-29.62,3.2-59.43-5.14-60.4l-1,120.39Z" class="cls-5"/><path d="M140.66,131.93,117.51,238.34l2.1.49S156.26,137.48,140.66,131.93Z" class="cls-5"/><path d="M116.39,238.08l1-120.39h-.22l-1,120.36Z" class="cls-4"/><path d="M87.32,129.67h-.26l26.86,107.52h.26Z" class="cls-4"/><path d="M140.42,131.85,117.26,238.28l.25.06,23.15-106.41Z" class="cls-4"/><polygon points="472.46 155.37 472.41 158.69 472.66 158.69 472.73 154.56 472.46 155.37" class="cls-5"/><path d="M499.05,141.69l-26.32,80.95-.07,4.13h1.75a5,5,0,0,1,.12-.9h.07S510.81,147.41,499.05,141.69Z" class="cls-4"/><path d="M467.36,227.83l2.68-.48-16-86C443.18,148.39,467.36,227.83,467.36,227.83Z" class="cls-4"/><path d="M470.64,227.25l.44-.48h0l1.36-4.17L474,130.53c-6.55.9-7.32,24.65-6.43,48.33-2.23-20.33-6-39.1-12.35-38a2.87,2.87,0,0,0-.9.33l16,86.09Z" class="cls-4"/><path d="M498.81,141.6c-.09,0-.17-.08-.27-.11-7.08-2-14.34,21.92-19.56,44.67,2.23-26.3,3-55.68-4.59-55.67h-.14l-1.51,91.29Z" class="cls-4"/><path d="M454.08,141.34l.24-.12" class="cls-5"/><path d="M454.32,141.22l-.24.12,16,86h.25Z" class="cls-5"/><path d="M472.74,221.79l1.51-91.29H474l-1.52,92.07Z" class="cls-5"/><path d="M472.73,222.64l26.32-80.95-.24-.09-26.07,80.19Z" class="cls-5"/><path d="M536,175.36a87.4,87.4,0,0,1-5.36,7.21c1.06-1.28,2.1-2.49,3.13-3.65l2.62-3.63Z" class="cls-1"/><path d="M539,172.11l-3.59,5c1.36-1.5,2.7-2.93,4-4.26Z" class="cls-1"/><polygon points="511.71 209.77 523.41 225.93 538.03 207.57 525.94 190.1 511.71 209.77" class="cls-3"/><path d="M536,175.36l-22.53,4.29-8.59,21.13,13.93-1.19,15-20.67c-1,1.16-2.07,2.37-3.13,3.65A89.27,89.27,0,0,0,536,175.36Z" class="cls-3"/><path d="M564.91,173.82,556,159.2c-4.81,2.81-10.27,7.14-16.44,13.43l11.19,19Z" class="cls-3"/><path d="M535.36,177.07l-9.27,12.82,12.1,17.48,12.37-15.53-11.2-19C538.06,174.14,536.72,175.57,535.36,177.07Z" class="cls-3"/><path d="M584.74,169.27a18.65,18.65,0,0,0-6.63-11.63l-7.66,9.62Z" class="cls-3"/><path d="M557.74,183.22l23.54,4.47c2.58-6,3.74-11.36,3.74-15.3a17.16,17.16,0,0,0-.24-2.86l-14.51-2Z" class="cls-3"/><path d="M577.91,157.5c-4.67-3.41-11.78-4.17-21.71,1.57l8.87,14.54Z" class="cls-3"/><path d="M537.21,120.47c-4.18-1.19-9.57-.65-16.15,2.19a26.34,26.34,0,0,0-7.73,5.26l14.37,16Z" class="cls-3"/><path d="M508.51,191.06,492.1,174.4c-2.48,10.46-4.23,21-5.45,30.21l12.7,9Z" class="cls-3"/><path d="M546.91,130.64c-1.62-5-4.77-8.68-9.45-10.1l-4.75,11.67Z" class="cls-3"/><path d="M527.59,144.13l-14.44-16c-5.07,4.89-9.27,11.94-12.76,20.11l17.66,19.4Z" class="cls-3"/><path d="M517.94,167.86l-17.66-19.41a164.77,164.77,0,0,0-8.11,25.66l16.44,16.7Z" class="cls-3"/><path d="M513.53,179.37l22.62-4.3a76.32,76.32,0,0,0,10.52-23.49l-23.35,3.72Z" class="cls-3"/><path d="M523.43,155l23.3-3.72c1.87-7.79,2-14.93.26-20.43l-14.39,1.59Z" class="cls-3"/><path d="M557.56,183.44l-13.85,17.4,26.49,4.93a78.39,78.39,0,0,0,11-17.84Z" class="cls-3"/><path d="M504.64,201.05v-.25h.21l8.59-21.13h-.07v-.24h.22l9.79-24.07h-.07v-.25h.22l9.17-22.56h-.07v-.25h.21l4.75-11.67-.25-.07L527.83,144l.13.15-.19.17v-.06l-9.54,23.47.13.15-.18.17-.06-.06-9.33,23,.14.13-.18.18-.06-.06-9.16,22.52.13.09-.14.21-.09-.06-7.49,18.43H492L504.72,201Z" class="cls-4"/><path d="M530.53,217.29V217h.21l12.75-16h-.07v-.25h.21l13.85-17.4h-.07v-.25h.2l12.53-15.73h-.07v-.25h.21l7.66-9.62-.2-.14L564.9,173.51l.1.16-.22.13v-.08L550.6,191.53l.09.16-.22.12v-.07L538.1,207.27l.09.14-.2.14,0-.07-14.62,18.35.1.13-.21.15V226l-4.88,6.12h.32l12-14.85Z" class="cls-4"/><path d="M511.45,209.85l.21-.15v.07l14.23-19.67-.1-.14.2-.15,0,.08,9.27-12.82-1.64,1.85-15,20.67h.06v.25h-.27L495,232.23h.31L511.55,210Z" class="cls-4"/><polygon points="525.94 190.1 538.03 207.57 538.19 207.37 526.09 189.89 525.94 190.1" class="cls-4"/><polygon points="526.04 189.81 525.84 189.96 525.94 190.1 526.09 189.89 526.04 189.81" class="cls-4"/><path d="M550.56,191.84l.17-.21-11.19-19-.18.18Z" class="cls-4"/><polygon points="550.6 191.91 550.82 191.78 550.73 191.63 550.56 191.84 550.6 191.91" class="cls-4"/><path d="M565.07,173.61l-8.87-14.54-.22.13,8.93,14.62Z" class="cls-4"/><polygon points="564.95 173.9 565.16 173.77 565.07 173.61 564.91 173.82 564.95 173.9" class="cls-4"/><path d="M570.27,167.49l14.51,2v-.26l-14.29-2Z" class="cls-4"/><polygon points="570.24 167.23 570.2 167.48 570.27 167.49 570.45 167.26 570.24 167.23" class="cls-4"/><path d="M557.56,183.44l23.62,4.49a2.44,2.44,0,0,1,.1-.24l-23.54-4.47Z" class="cls-4"/><polygon points="557.54 183.18 557.49 183.43 557.56 183.44 557.74 183.22 557.54 183.18" class="cls-4"/><path d="M508.61,190.81l-16.44-16.7a1.53,1.53,0,0,1-.07.29l16.41,16.66Z" class="cls-4"/><polygon points="508.57 191.12 508.75 190.94 508.61 190.81 508.51 191.06 508.57 191.12" class="cls-4"/><path d="M536.34,175.29l.22-.3-.41.08-.2.29Z" class="cls-4"/><path d="M513.42,179.65,536,175.36l.2-.29-22.62,4.3Z" class="cls-4"/><polygon points="513.31 179.41 513.35 179.66 513.42 179.65 513.53 179.37 513.31 179.41" class="cls-4"/><path d="M518.05,167.6l-17.66-19.4a1.89,1.89,0,0,1-.11.25l17.66,19.41Z" class="cls-4"/><polygon points="518 167.92 518.18 167.75 518.05 167.6 517.94 167.86 518 167.92" class="cls-4"/><path d="M523.32,155.3l23.35-3.72.06-.27L523.43,155Z" class="cls-4"/><polygon points="523.21 155.07 523.25 155.32 523.32 155.31 523.43 155.03 523.21 155.07" class="cls-4"/><path d="M527.7,143.87l-14.37-16-.18.17,14.44,16Z" class="cls-4"/><polygon points="527.64 144.19 527.83 144.02 527.7 143.87 527.59 144.13 527.64 144.19" class="cls-4"/><path d="M512.53,180.66a2,2,0,0,0-.8-.78c-4.37-2.37-12.69,12.34-19.49,26.57,5.23-16.62,10-35.37,5.52-37.28L481.43,230Z" class="cls-5"/><path d="M497.52,169.09h-.09c-4.57-1-8.67,14.84-11.63,30.9,1.52-13.73,1.8-26.67-2.55-26.86h-.07l-2.06,57.12Z" class="cls-5"/><path d="M482.93,173.11c-8.89,1-4.49,59.11-4.49,59.11l1.57.07.84-1.33Z" class="cls-5"/><path d="M481.08,231.33v.74l2.19.49s.08-.21.21-.58h0s32.72-42.84,29.16-51.09l-31.45,49.92Z" class="cls-5"/><path d="M481.43,230l16.33-60.86-.24-.08-16.4,61.12,2.06-57.12h-.25L480.85,231Z" class="cls-4"/><path d="M481.43,230l-.22.81,31.45-49.92c0-.09-.09-.18-.13-.26Z" class="cls-4"/><path d="M513.15,128.09l.18-.17" class="cls-4"/><path d="M532.6,132.47l14.4-1.59a2.25,2.25,0,0,1-.08-.24l-14.2,1.57Z" class="cls-4"/><polygon points="532.5 132.24 532.53 132.48 532.6 132.47 532.71 132.21 532.5 132.24" class="cls-4"/><path d="M466.72,54.13s-3-4.8-2.43-5.63c.51-.66,2.14,2.44,2.14,2.44s-.53-3.26-1-4.84,1.5-2.09,3.13.65.94,7.38.94,7.38Z" class="cls-6"/><path d="M335.36,103.37s-3.62-1.15-4.07,4.28c0,3.11,1,3,1,3l3.88-3Z" class="cls-6"/><polygon points="233.66 164.67 226.48 285.37 233.74 285.37 252.6 182.94 263.69 285.37 270.48 285.37 270.87 164.67 233.66 164.67" class="cls-7"/><path d="M252.53,112.87h0a5.76,5.76,0,0,1-5.76-5.76V97.52h11.52v9.59A5.76,5.76,0,0,1,252.53,112.87Z" class="cls-8"/><path d="M243.31,86.53a2.69,2.69,0,0,0-3,2.35,3,3,0,0,0,0,.52c0,3.19,3.92,3.52,3.92,3.52Z" class="cls-6"/><path d="M261.76,86.53a2.69,2.69,0,0,1,3,2.3,2.72,2.72,0,0,1,0,.57c0,3.19-3.93,3.52-3.93,3.52Z" class="cls-6"/><rect width="18.75" height="26.14" x="243.16" y="75.59" class="cls-6" rx="9.37"/><polygon points="185.08 169.38 178.9 285.37 188.64 285.37 206.16 192.95 217.42 285.37 227.17 285.37 227.8 169.38 185.08 169.38" class="cls-9"/><path d="M226.42,124.64c0-26.23-13.1-22.4-26.21-22.4s-12.57,22.4-12.57,22.4L183.82,174c15.06,5.1,30,5.22,44.69,0Z" class="cls-10"/><line x1="198.69" x2="197.84" y1="89.98" y2="83.84" class="cls-1"/><path d="M206.7,106.75h0c-3,0-5.53-.08-5.53-3.13V94.4h11.07v9.22C212.24,106.67,209.76,106.75,206.7,106.75Z" class="cls-8"/><rect width="18.02" height="25.12" x="197.69" y="73.33" class="cls-6" rx="9.01"/><path d="M459.11,124.64c0-26.23-13.09-22.4-26.2-22.4s-12.57,22.4-12.57,22.4l-2.56,44.74a55.59,55.59,0,0,0,42.72,0Z" class="cls-5"/><path d="M417.78,169.38l-6.18,116h9.73L439.46,187l10.66,98.43h9.74l.64-116A61.55,61.55,0,0,1,417.78,169.38Z" class="cls-7"/><path d="M430.54,83.84a2.58,2.58,0,0,0-2.91,2.22,2.44,2.44,0,0,0,0,.54c0,3.07,3.77,3.38,3.77,3.38Z" class="cls-6"/><path d="M448.26,83.84a2.58,2.58,0,0,1,2.91,2.22,2.44,2.44,0,0,1,0,.54c0,3.07-3.77,3.38-3.77,3.38Z" class="cls-6"/><path d="M439.4,107.08h0c-3,0-5.53-.41-5.53-3.46V94.4h11.06v9.22C444.93,106.67,442.46,107.08,439.4,107.08Z" class="cls-8"/><path d="M439.4,98.45h0a9,9,0,0,1-9-9v-7.1a9,9,0,0,1,9-9h0a9,9,0,0,1,9,9v7.1A9,9,0,0,1,439.4,98.45Z" class="cls-6"/><path d="M343.69,105.19s-13-.85-15.28,13.66c-2.79,17.48,7.28,19.47-2.79,45.82h37.22s-8.26-9.56-1.68-31.43S354,105.19,343.69,105.19Z" class="cls-11"/><path d="M344.5,110.8h0c-3.18,0-5.75-.51-5.75-3.69V97.52h11.51v9.59C350.26,110.29,347.68,110.8,344.5,110.8Z" class="cls-8"/><line x1="336.16" x2="335.28" y1="92.92" y2="86.53" class="cls-1"/><path d="M344.5,101.73h0a9.4,9.4,0,0,1-9.37-9.37V85a9.4,9.4,0,0,1,9.37-9.37h0A9.4,9.4,0,0,1,353.88,85v7.4A9.4,9.4,0,0,1,344.5,101.73Z" class="cls-6"/><polygon points="138.77 171.33 131.99 285.37 138.84 285.37 156.67 188.59 167.14 285.37 173.56 285.37 173.93 171.33 138.77 171.33" class="cls-6"/><path d="M155.84,115.13s-12.26-.8-14.44,12.91c-2.63,16.51,6.88,18.39-2.63,43.29h35.16s-7.8-9-1.58-29.7S165.54,115.13,155.84,115.13Z" class="cls-7"/><path d="M156.61,122.38h0a5.43,5.43,0,0,1-5.44-5.42h0v-9.07H162V117A5.44,5.44,0,0,1,156.61,122.38Z" class="cls-8"/><path d="M147.89,97.5A2.54,2.54,0,0,0,145,99.67a2.44,2.44,0,0,0,0,.54c0,3,3.71,3.32,3.71,3.32Z" class="cls-6"/><path d="M165.32,97.5a2.54,2.54,0,0,1,2.86,2.17,2.44,2.44,0,0,1,0,.54c0,3-3.71,3.32-3.71,3.32Z" class="cls-6"/><path d="M156.61,111.86h0a8.88,8.88,0,0,1-8.86-8.86V96a8.88,8.88,0,0,1,8.86-8.86h0A8.87,8.87,0,0,1,165.46,96v7A8.89,8.89,0,0,1,156.61,111.86Z" class="cls-6"/><polygon points="370.23 164.08 362.84 285.37 370.31 285.37 389.75 182.43 401.18 285.37 408.19 285.37 408.58 164.08 370.23 164.08" class="cls-6"/><path d="M388.85,102.77s-13.37-.87-15.75,14.08c-2.87,18,7.51,20.07-2.87,47.23h38.35s-8.51-9.86-1.72-32.4S399.43,102.77,388.85,102.77Z" class="cls-4"/><path d="M389.69,110.68h0a5.94,5.94,0,0,1-5.94-5.93V94.86h11.87v9.89A6,6,0,0,1,389.69,110.68Z" class="cls-8"/><path d="M380.18,83.53a2.78,2.78,0,0,0-3.13,2.36,3.42,3.42,0,0,0,0,.64c0,3.29,4,3.63,4,3.63Z" class="cls-6"/><path d="M399.19,83.53a2.78,2.78,0,0,1,3.13,2.36,3.42,3.42,0,0,1,0,.64c0,3.29-4,3.63-4,3.63Z" class="cls-6"/><path d="M389.69,99.2h0A9.69,9.69,0,0,1,380,89.54V81.92a9.69,9.69,0,0,1,9.66-9.67h0a9.69,9.69,0,0,1,9.66,9.67v7.62A9.69,9.69,0,0,1,389.69,99.2Z" class="cls-6"/><path d="M319.32,121.47c0-26.74-13.35-22.84-26.72-22.84s-12.82,22.84-12.82,22.84l-2.61,45.62a65.49,65.49,0,0,0,43.56,0Z" class="cls-12"/><path d="M277.17,167.09l-6.3,118.27h9.93L299.28,185l10.87,100.37h9.94l.64-118.27A77.31,77.31,0,0,1,277.17,167.09Z" class="cls-3"/><path d="M299.22,103.61h0c-3.12,0-5.64-.46-5.64-3.57V90.63h11.28V100C304.86,103.15,302.34,103.61,299.22,103.61Z" class="cls-8"/><path d="M299.22,94.76h0A9.22,9.22,0,0,1,290,85.57V78.33a9.22,9.22,0,0,1,9.19-9.19h0a9.22,9.22,0,0,1,9.19,9.19v7.24A9.22,9.22,0,0,1,299.22,94.76Z" class="cls-6"/><path d="M244.79,106.75s-7.42,2.57-20.59,13.34-23,11.95-23,11.95l.08,8.24s24.54-3,41.68-20.07" class="cls-4"/><path d="M150.83,117s-17.41-11-20.16-42.57H128s-3.77,39.09,13.79,58.17" class="cls-7"/><path d="M162,116s7.86,0,23.83,5.86,25.42,2.38,25.42,2.38l1.27,2.41S190,138.54,168.2,128.06" class="cls-7"/><path d="M275.06,195.69a118.49,118.49,0,0,1-45.81,0,128,128,0,0,1,6.62-41.27,36.17,36.17,0,0,0,1.44-18.65c-.92-4.88-2.05-9.51-.87-16.92,2.31-14.51,15.28-13.66,15.28-13.66,10.27,0,24.06,6.19,17.47,28.05-.11.38-.22.75-.32,1.12a37.36,37.36,0,0,0,.81,22.22C275.7,174.32,275.06,195.69,275.06,195.69Z" class="cls-4"/><path d="M259.89,106.75s7.42,2.57,20.6,13.34,22.95,10.23,22.95,10.23v8.35s-24.56-1.43-41.7-18.46" class="cls-4"/><path d="M201.17,102.23s-9.52-1-27.18,12.61c-17.08,11.14-32.47,3.62-32.47,3.62l-1,2.51s7.88,11.51,24.47,9.67a69.13,69.13,0,0,0,28.8-10.3Z" class="cls-10"/><path d="M349.32,105.68s7.68,1.66,22.05,10.77,25.54,8.3,25.54,8.3l-.51,3.51s-24.57,5.41-43.62-9.45" class="cls-11"/><path d="M212.24,102.08s8.23-2.61,28,7.74c18.74,8,32.6-1.57,32.6-1.57l2.25,3.3s-6.57,11.24-23.22,12.28a69,69,0,0,1-30.15-5.19Z" class="cls-10"/><path d="M334.78,107.65s-6.4,4.56-16,18.6S299,142.9,299,142.9l1.61,4.87s24.57-5.52,36.22-26.68" class="cls-11"/><path d="M304.79,98.43s9.57-.92,25.75,14.42c15.84,12.83,31.63,6.82,31.63,6.82l1.27,5.35s-9.22,8-25.53,4.48a69.2,69.2,0,0,1-27.6-13.21Z" class="cls-12"/><path d="M292.6,98.63s-9.92-.21-26.1,15.13c-15.84,12.83-31.63,6.76-31.63,6.76L233,125.09s9.84,8.85,26.15,5.32a69.2,69.2,0,0,0,27.6-13.21Z" class="cls-12"/><path d="M431.38,102.47s-9.57.1-25.58,15.61c-13.27,14.68-30.75,7.91-30.75,7.91l-.67,2.68s8,9.84,24.23,6.14a69.17,69.17,0,0,0,27.45-13.5Z" class="cls-5"/><path d="M444.93,102.16S463.6,90.7,466.7,55.09h2.81s12.29,22.61-14.34,64.59" class="cls-5"/><path d="M395.62,103.29s7.83.58,23.33,7.61,25.7,4,25.7,4l1,2.51s-18.08,10.64-44.83-1.55" class="cls-4"/><path d="M383.75,103.49s-7.73-1.71-24.48,1.33c-12.28,2.23-20.43-.07-23.91-1.45a2.24,2.24,0,0,0-2.86,1.15h0a2.25,2.25,0,0,0,.89,2.91c5.46,3.2,23,12,42.23,6.57" class="cls-4"/><path d="M156.61,84.82A12.8,12.8,0,0,0,145,93.35c-3,8.53-11.06,15.3-5.06,19.52s1.55,12.65,14,14.4,14.3-6.4,14.3-13.57,5.57-5.22,3.34-14.19S162.12,84.82,156.61,84.82Z" class="cls-13"/><path d="M206.44,72.32S198.09,72.1,196,82s4.62,18.56,10.74,18.56,11.75-6.68,10.68-18.11S206.44,72.32,206.44,72.32Z" class="cls-7"/><path d="M348.09,73.11c5.63-6-7.77-7.71-8.79-3.17-.1.46.66,3.4,1.36,3.17,0,0-9.33,3-7.75,14.63.55,4.07,1.69,8.92,5.25,11.87a10.61,10.61,0,0,0,12.06.46c4-2.78,5.06-8.14,5.63-12.33C357.42,76.16,348.09,73.11,348.09,73.11Z" class="cls-13"/><path d="M402.62,82.29c-3.27-14.82-24.33-14.07-26.8.91a41.83,41.83,0,0,0-.52,6.8v33.43a53.12,53.12,0,0,0,28.25,0V90.38A39.35,39.35,0,0,0,402.62,82.29Z" class="cls-7"/><path d="M447.08,71.83c-2.57-5-13-5.06-15.62,0-2.16,4.2-7.24,5.2-6.27,11.84s4.66,6.86,6.27,11.23c2.37,6.49,13.25,6.49,15.62,0,1.61-4.37,5.3-4.58,6.27-11.23S449.23,76,447.08,71.83Z" class="cls-9"/><path d="M130.67,74.43s.92-5.58.06-6.12-1,3.08-1,3.08-.77-3.22-1-4.85-2.18-1.34-2.62,1.81,1.84,6.1,1.84,6.1Z" class="cls-6"/><path d="M141.52,118.46s-4.79-3-5.63-2.43c-.66.51,2.44,2.14,2.44,2.14s-3.26-.53-4.84-1-2.08,1.49.65,3.12,6.34.66,6.34.66Z" class="cls-6"/><path d="M201.18,132s-5.6-.82-6.13.05,3.1,1,3.1,1-3.2.84-4.83,1.06-1.3,2.21,1.86,2.59a12,12,0,0,0,6.08-1.09Z" class="cls-6"/><path d="M211.29,124.2s4.48-3.45,5.36-3c.71.44-2.22,2.36-2.22,2.36s3.2-.84,4.73-1.44,2.21,1.29-.36,3.17-6.24,1.27-6.24,1.27Z" class="cls-6"/><path d="M234.87,120.52s-4.79-3-5.63-2.43c-.66.51,2.45,2.14,2.45,2.14s-3.27-.53-4.85-1-2.08,1.49.66,3.12,6.33.66,6.33.66Z" class="cls-6"/><path d="M299,142.9s-5.6.86-5.84,1.85c-.17.82,3.24,0,3.24,0s-2.81,1.73-4.31,2.42-.59,2.5,2.54,1.93,5.23-3.64,5.23-3.64Z" class="cls-6"/><path d="M303.44,130.32s5.21-2.22,5.94-1.51c.57.61-2.75,1.73-2.75,1.73s3.31,0,4.94-.21,1.82,1.81-1.14,3-7,.45-7,.45Z" class="cls-6"/><path d="M362.17,119.67s5.21-2.21,5.94-1.5c.57.6-2.75,1.72-2.75,1.72s3.31,0,4.94-.2,1.82,1.81-1.14,3-6.36-.35-6.36-.35Z" class="cls-6"/><path d="M374.12,125.67s-5.21-2.21-5.94-1.5c-.58.61,2.75,1.73,2.75,1.73s-3.31,0-4.94-.21-1.82,1.81,1.14,3,6.36-.35,6.36-.35Z" class="cls-6"/><path d="M444.65,114.86s4.79-3,5.62-2.43c.66.51-2.44,2.15-2.44,2.15s3.26-.54,4.84-1,2.09,1.5-.65,3.12-6.33.66-6.33.66Z" class="cls-6"/><path d="M143.09,152.66s-13,28.73-13,63.44c9.28,4.3,43.13,2.86,48.85,0,0,0,1.21-46.6-8.77-63.44C170.13,152.66,159.7,155.92,143.09,152.66Z" class="cls-13"/><path d="M360.06,159.06c-10.31,3.42-26.34,2.54-32.47,0,0,0-5,7.14-4.19,23.11a223.21,223.21,0,0,1-.29,24.81l-4.66,78.38h7.25l18.87-102.42,11.08,102.42h6.8l.35-78.88a202.81,202.81,0,0,1,1.4-23.88C365.7,170.66,363.7,164.41,360.06,159.06Z" class="cls-13"/><path d="M405.77,135.71a76.48,76.48,0,0,1-31.53-.09,237.22,237.22,0,0,0-7.42,59.18c11.21,3.82,39.07,1.82,45.33,0C412.15,194.8,411.6,151.56,405.77,135.71Z" class="cls-13"/><path d="M200.21,102.24l1-.45s0,4.62,5.53,4.62,5.54-4.82,5.54-4.82l.85.32S214,108,206.7,108,200.21,102.24,200.21,102.24Z" class="cls-5"/><path d="M293.58,97.52s.33,5.21,5.64,5.21,5.64-5.42,5.64-5.42l1.69,1.22s.08,6.22-7.33,6.22-7.41-6.07-7.41-6.07Z" class="cls-4"/><path d="M237.86,144.49l-.21,2.31s12.87,4.36,30,0l-.1-2.31C250.64,148.17,237.86,144.49,237.86,144.49Z" class="cls-13"/><path d="M281.66,121s8.16-7.69.57-19" class="cls-14"/><path d="M318.88,122.08s-11.59-5-1.9-19.61" class="cls-14"/><path d="M188.75,179.45l13.9,2.65s1,10.85-7.8,10.85S188.75,179.45,188.75,179.45Z" class="cls-14"/><path d="M223.58,179.45l-13.9,2.65s-1,10.85,7.79,10.85S223.58,179.45,223.58,179.45Z" class="cls-14"/><path d="M420.65,166.3s20.26,5.9,36.92,0" class="cls-14"/><path d="M341.2,73.21a5.91,5.91,0,0,0,6.34,0" class="cls-15"/><path d="M328,157.79s16.73,4.42,31.71,0l.37,1.27s-5,2.62-16,2.62-16.43-2.62-16.43-2.62Z" class="cls-4"/><polygon points="334.62 161.58 334.62 159.03 335.87 159.2 335.87 161.87 334.62 161.58" class="cls-13"/><polygon points="352.96 161.68 352.96 159.21 351.82 159.36 351.82 161.68 352.96 161.68" class="cls-13"/><path d="M176.3,216.93l-.3.07c0-42.76-8-63.61-8.12-63.81l.25-.05C168.22,153.34,176.3,174.13,176.3,216.93Z" class="cls-4"/><path d="M189.51,106.16s3.33,6.7,0,15.71" class="cls-16"/><path d="M224,118.6s-3.55-6.11,0-14.49" class="cls-16"/><line x1="280.56" x2="273.15" y1="167.98" y2="285.36" class="cls-16"/><line x1="316.71" x2="318.45" y1="168.15" y2="277.14" class="cls-16"/><line x1="301.78" x2="303.44" y1="142.9" y2="146.95" class="cls-16"/><path d="M257.75,74.51a12.87,12.87,0,0,0-10.06.87,16.13,16.13,0,0,0-4.91,3.85h0a41.12,41.12,0,0,0-4.1,5.72c-1.25,2.36-8.74,9.17-7.65,15.66a10.57,10.57,0,0,1,2-5.08c-.72,1.72-.74,3.63.61,6.23,2.91-4.31,10.57,1.79,23.16,1.79C268.16,103.52,271.45,79.35,257.75,74.51Z" class="cls-13"/><path d="M310.32,75.59c0-3.39-2.71-5.34-5.46-6.45a13.24,13.24,0,0,0-11.85.63A9.11,9.11,0,0,0,288.63,76h0v.11a11.2,11.2,0,0,0-.19,2c0,1.83,0,3.55.11,5.15l-.11,11.48.65-2.26v2.26h20.25s.09-.82.32-4.5l.68,4.5Z" class="cls-9"/><path d="M425.29,104.16a6.66,6.66,0,0,1,7.13-3.42c5,.91,5.77,3.06,8.78,1.73s4.56-3.27,7.17-3.27c0,7.63-1,13.48-7.92,14.74S432.29,103.41,425.29,104.16Z" class="cls-12"/><polygon points="373.49 128.32 374.12 125.67 375.05 125.99 374.38 128.67 373.49 128.32" class="cls-12"/><rect width="2.81" height=".96" x="466.7" y="54.13" class="cls-12"/></g><path d="M52.54,60.21h51.1S101,47.44,86.07,51.69c-14.37-14.37-24.48-.86-24.48-.86S52.54,50.1,52.54,60.21Z" class="cls-17"/><path d="M500.87,38.58H552s-2.7-12.78-17.6-8.52c-14.37-14.37-24.48-.87-24.48-.87S500.87,28.46,500.87,38.58Z" class="cls-17"/><path d="M443.8,12.28h39.47s-3.78-9.83-13.86-5.65C462.56-4.72,443.8-.62,443.8,12.28Z" class="cls-17"/></svg>